<mxfile host="app.diagrams.net" agent="Mozilla/5.0 (Windows NT 10.0; Win64; x64) AppleWebKit/537.36 (KHTML, like Gecko) Chrome/129.0.0.0 Safari/537.36" version="24.7.16">
  <diagram name="Page-1" id="8OGe40qEGDtuSSPitzxy">
    <mxGraphModel dx="1434" dy="772" grid="1" gridSize="10" guides="1" tooltips="1" connect="1" arrows="1" fold="1" page="1" pageScale="1" pageWidth="827" pageHeight="1169" math="0" shadow="0">
      <root>
        <mxCell id="0" />
        <mxCell id="1" parent="0" />
        <mxCell id="CrymO2VgQ4_H6ppFqPqp-5" value="" style="rounded=1;whiteSpace=wrap;html=1;fillColor=#b1ddf0;strokeColor=#10739e;" vertex="1" parent="1">
          <mxGeometry x="90.5" y="170" width="250" height="60" as="geometry" />
        </mxCell>
        <mxCell id="CrymO2VgQ4_H6ppFqPqp-7" value="" style="rounded=1;whiteSpace=wrap;html=1;fillColor=#b1ddf0;strokeColor=#10739e;" vertex="1" parent="1">
          <mxGeometry x="90.5" y="250" width="250" height="60" as="geometry" />
        </mxCell>
        <mxCell id="CrymO2VgQ4_H6ppFqPqp-9" value="" style="rounded=1;whiteSpace=wrap;html=1;fillColor=#b1ddf0;strokeColor=#10739e;" vertex="1" parent="1">
          <mxGeometry x="90.5" y="410" width="250" height="60" as="geometry" />
        </mxCell>
        <mxCell id="CrymO2VgQ4_H6ppFqPqp-4" value="&lt;font style=&quot;font-size: 21px;&quot; face=&quot;Verdana&quot;&gt;4. Transfer Layer&lt;/font&gt;" style="text;html=1;align=center;verticalAlign=middle;whiteSpace=wrap;rounded=0;fillColor=none;" vertex="1" parent="1">
          <mxGeometry x="108" y="420" width="215" height="40" as="geometry" />
        </mxCell>
        <mxCell id="CrymO2VgQ4_H6ppFqPqp-8" value="" style="rounded=1;whiteSpace=wrap;html=1;fillColor=#b1ddf0;strokeColor=#10739e;" vertex="1" parent="1">
          <mxGeometry x="90.5" y="330" width="250" height="60" as="geometry" />
        </mxCell>
        <mxCell id="CrymO2VgQ4_H6ppFqPqp-10" value="" style="rounded=1;whiteSpace=wrap;html=1;fillColor=#b1ddf0;strokeColor=#10739e;" vertex="1" parent="1">
          <mxGeometry x="90.5" y="490" width="250" height="60" as="geometry" />
        </mxCell>
        <mxCell id="CrymO2VgQ4_H6ppFqPqp-11" value="" style="rounded=1;whiteSpace=wrap;html=1;fillColor=#b1ddf0;strokeColor=#10739e;" vertex="1" parent="1">
          <mxGeometry x="90.5" y="570" width="250" height="60" as="geometry" />
        </mxCell>
        <mxCell id="CrymO2VgQ4_H6ppFqPqp-12" value="" style="rounded=1;whiteSpace=wrap;html=1;fillColor=#b1ddf0;strokeColor=#10739e;" vertex="1" parent="1">
          <mxGeometry x="90.5" y="650" width="250" height="60" as="geometry" />
        </mxCell>
        <mxCell id="CrymO2VgQ4_H6ppFqPqp-14" value="&lt;font style=&quot;font-size: 21px;&quot; face=&quot;Verdana&quot;&gt;7. Application Layer&lt;/font&gt;" style="text;html=1;align=center;verticalAlign=middle;whiteSpace=wrap;rounded=0;fillColor=none;" vertex="1" parent="1">
          <mxGeometry x="108" y="180" width="215" height="40" as="geometry" />
        </mxCell>
        <mxCell id="CrymO2VgQ4_H6ppFqPqp-16" value="&lt;font style=&quot;font-size: 21px;&quot; face=&quot;Verdana&quot;&gt;3. Network Layer&lt;/font&gt;" style="text;html=1;align=center;verticalAlign=middle;whiteSpace=wrap;rounded=0;fillColor=none;" vertex="1" parent="1">
          <mxGeometry x="108" y="500" width="215" height="40" as="geometry" />
        </mxCell>
        <mxCell id="CrymO2VgQ4_H6ppFqPqp-17" value="&lt;font style=&quot;font-size: 21px;&quot; face=&quot;Verdana&quot;&gt;2. Data Link Layer&lt;/font&gt;" style="text;html=1;align=center;verticalAlign=middle;whiteSpace=wrap;rounded=0;fillColor=none;" vertex="1" parent="1">
          <mxGeometry x="108" y="580" width="215" height="40" as="geometry" />
        </mxCell>
        <mxCell id="CrymO2VgQ4_H6ppFqPqp-18" value="&lt;font style=&quot;font-size: 21px;&quot; face=&quot;Verdana&quot;&gt;1. Physical Layer&lt;/font&gt;" style="text;html=1;align=center;verticalAlign=middle;whiteSpace=wrap;rounded=0;fillColor=none;" vertex="1" parent="1">
          <mxGeometry x="108" y="660" width="215" height="40" as="geometry" />
        </mxCell>
        <mxCell id="CrymO2VgQ4_H6ppFqPqp-19" value="&lt;font style=&quot;font-size: 21px;&quot; face=&quot;Verdana&quot;&gt;6. Presentation Layer&lt;/font&gt;" style="text;html=1;align=center;verticalAlign=middle;whiteSpace=wrap;rounded=0;fillColor=none;" vertex="1" parent="1">
          <mxGeometry x="100.5" y="260" width="230" height="40" as="geometry" />
        </mxCell>
        <mxCell id="CrymO2VgQ4_H6ppFqPqp-20" value="&lt;font style=&quot;font-size: 21px;&quot; face=&quot;Verdana&quot;&gt;5. Session Layer&lt;/font&gt;" style="text;html=1;align=center;verticalAlign=middle;whiteSpace=wrap;rounded=0;fillColor=none;" vertex="1" parent="1">
          <mxGeometry x="108" y="340" width="215" height="40" as="geometry" />
        </mxCell>
        <mxCell id="CrymO2VgQ4_H6ppFqPqp-21" value="" style="rounded=1;whiteSpace=wrap;html=1;spacingTop=-5;" vertex="1" parent="1">
          <mxGeometry x="398" y="170" width="360" height="60" as="geometry" />
        </mxCell>
        <mxCell id="CrymO2VgQ4_H6ppFqPqp-22" value="" style="rounded=1;whiteSpace=wrap;html=1;" vertex="1" parent="1">
          <mxGeometry x="398" y="250" width="360" height="60" as="geometry" />
        </mxCell>
        <mxCell id="CrymO2VgQ4_H6ppFqPqp-23" value="" style="rounded=1;whiteSpace=wrap;html=1;" vertex="1" parent="1">
          <mxGeometry x="398" y="330" width="360" height="60" as="geometry" />
        </mxCell>
        <mxCell id="CrymO2VgQ4_H6ppFqPqp-24" value="" style="rounded=1;whiteSpace=wrap;html=1;" vertex="1" parent="1">
          <mxGeometry x="398" y="410" width="360" height="60" as="geometry" />
        </mxCell>
        <mxCell id="CrymO2VgQ4_H6ppFqPqp-25" value="" style="rounded=1;whiteSpace=wrap;html=1;" vertex="1" parent="1">
          <mxGeometry x="398" y="490" width="360" height="60" as="geometry" />
        </mxCell>
        <mxCell id="CrymO2VgQ4_H6ppFqPqp-26" value="" style="rounded=1;whiteSpace=wrap;html=1;" vertex="1" parent="1">
          <mxGeometry x="398" y="570" width="360" height="60" as="geometry" />
        </mxCell>
        <mxCell id="CrymO2VgQ4_H6ppFqPqp-27" value="" style="rounded=1;whiteSpace=wrap;html=1;" vertex="1" parent="1">
          <mxGeometry x="398" y="650" width="360" height="60" as="geometry" />
        </mxCell>
        <mxCell id="CrymO2VgQ4_H6ppFqPqp-28" value="&lt;h1 style=&quot;margin-top: 0px;&quot;&gt;&lt;span style=&quot;font-weight: normal;&quot;&gt;&lt;font style=&quot;font-size: 15px;&quot;&gt;It is the layer that interacts with the data from the users such as web servers.&lt;/font&gt;&lt;/span&gt;&lt;/h1&gt;" style="text;html=1;whiteSpace=wrap;overflow=hidden;rounded=0;spacingTop=-5;spacingBottom=5;fillColor=none;fontFamily=Comic Sans MS;" vertex="1" parent="1">
          <mxGeometry x="400" y="170" width="366" height="60" as="geometry" />
        </mxCell>
        <mxCell id="CrymO2VgQ4_H6ppFqPqp-29" value="&lt;h1 style=&quot;margin-top: 0px;&quot;&gt;&lt;span style=&quot;color: rgb(34, 34, 34); font-weight: 400;&quot;&gt;&lt;font style=&quot;font-size: 15px;&quot; face=&quot;Comic Sans MS&quot;&gt;It is responsible for preparing data, it includes data encryption, decryption and compression.&lt;/font&gt;&lt;/span&gt;&lt;br&gt;&lt;/h1&gt;" style="text;html=1;whiteSpace=wrap;overflow=hidden;rounded=0;spacingTop=-5;spacingBottom=5;fillColor=none;" vertex="1" parent="1">
          <mxGeometry x="398" y="250" width="360" height="60" as="geometry" />
        </mxCell>
        <mxCell id="CrymO2VgQ4_H6ppFqPqp-30" value="&lt;h1 style=&quot;margin-top: 0px;&quot;&gt;&lt;span style=&quot;color: rgb(34, 34, 34); font-weight: 400;&quot;&gt;&lt;font style=&quot;font-size: 15px;&quot; face=&quot;Comic Sans MS&quot;&gt;It is the layer responsible for opening and closing communication between the two devices.&lt;/font&gt;&lt;/span&gt;&lt;br&gt;&lt;/h1&gt;" style="text;html=1;whiteSpace=wrap;overflow=hidden;rounded=0;spacingTop=-5;spacingBottom=5;fillColor=none;" vertex="1" parent="1">
          <mxGeometry x="398" y="330" width="360" height="60" as="geometry" />
        </mxCell>
        <mxCell id="CrymO2VgQ4_H6ppFqPqp-31" value="&lt;h1 style=&quot;margin-top: 0px;&quot;&gt;&lt;span style=&quot;color: rgb(34, 34, 34); font-weight: 400;&quot;&gt;&lt;font style=&quot;font-size: 15px;&quot; face=&quot;Comic Sans MS&quot;&gt;It breaks down data into &#39;segments&#39; at the transmitting end and reassembles it at the receiving end&lt;/font&gt;&lt;/span&gt;&lt;br&gt;&lt;/h1&gt;" style="text;html=1;whiteSpace=wrap;overflow=hidden;rounded=0;spacingTop=-5;spacingBottom=5;fillColor=none;" vertex="1" parent="1">
          <mxGeometry x="398" y="410" width="360" height="60" as="geometry" />
        </mxCell>
        <mxCell id="CrymO2VgQ4_H6ppFqPqp-32" value="&lt;h1 style=&quot;margin-top: 0px; font-size: 15px;&quot;&gt;&lt;font face=&quot;Comic Sans MS&quot; style=&quot;font-weight: normal; font-size: 15px;&quot;&gt;&lt;span style=&quot;color: rgb(34, 34, 34);&quot;&gt;&amp;nbsp;It breaks up segments into&amp;nbsp;&lt;/span&gt;packets&lt;span style=&quot;color: rgb(34, 34, 34);&quot;&gt;, on the senderâ€™s device, and reassembling these packets on the receiving device.&amp;nbsp;&lt;/span&gt;&lt;/font&gt;&lt;br&gt;&lt;/h1&gt;" style="text;html=1;whiteSpace=wrap;overflow=hidden;rounded=0;spacingTop=-5;spacingBottom=5;fillColor=none;" vertex="1" parent="1">
          <mxGeometry x="398" y="490" width="360" height="60" as="geometry" />
        </mxCell>
        <mxCell id="CrymO2VgQ4_H6ppFqPqp-33" value="&lt;h1 style=&quot;margin-top: 0px; font-size: 15px;&quot;&gt;&lt;font style=&quot;font-size: 15px; font-weight: normal;&quot; face=&quot;Comic Sans MS&quot;&gt;&lt;span style=&quot;color: rgb(34, 34, 34);&quot;&gt;It facilitates data transfer between two devices on the&amp;nbsp;&lt;/span&gt;&lt;em style=&quot;box-sizing: border-box; color: rgb(34, 34, 34);&quot;&gt;same&lt;/em&gt;&lt;span style=&quot;color: rgb(34, 34, 34);&quot;&gt;&amp;nbsp;network. It takes packets from the network layer and breaks them into frames.&amp;nbsp;&lt;/span&gt;&lt;/font&gt;&lt;br&gt;&lt;/h1&gt;" style="text;html=1;whiteSpace=wrap;overflow=hidden;rounded=0;spacingTop=-5;spacingBottom=5;fillColor=none;" vertex="1" parent="1">
          <mxGeometry x="398" y="570" width="360" height="60" as="geometry" />
        </mxCell>
        <mxCell id="CrymO2VgQ4_H6ppFqPqp-34" value="&lt;h1 style=&quot;margin-top: 0px; font-size: 15px;&quot;&gt;&lt;font face=&quot;Comic Sans MS&quot; style=&quot;font-weight: normal; font-size: 15px;&quot;&gt;&lt;span style=&quot;color: rgb(34, 34, 34);&quot;&gt;This layer includes the physical equipment involved in the data transfer, such as the cables and&amp;nbsp;&lt;/span&gt;switches.&lt;/font&gt;&lt;br&gt;&lt;/h1&gt;" style="text;html=1;whiteSpace=wrap;overflow=hidden;rounded=0;spacingTop=-5;spacingBottom=5;fillColor=none;" vertex="1" parent="1">
          <mxGeometry x="398" y="650" width="360" height="60" as="geometry" />
        </mxCell>
        <mxCell id="CrymO2VgQ4_H6ppFqPqp-35" value="" style="endArrow=classic;html=1;rounded=0;fontFamily=Helvetica;fontSize=12;fontColor=default;" edge="1" parent="1">
          <mxGeometry width="50" height="50" relative="1" as="geometry">
            <mxPoint x="60" y="680" as="sourcePoint" />
            <mxPoint x="60" y="210" as="targetPoint" />
            <Array as="points">
              <mxPoint x="60" y="420" />
            </Array>
          </mxGeometry>
        </mxCell>
        <mxCell id="CrymO2VgQ4_H6ppFqPqp-36" value="&lt;font style=&quot;font-size: 20px;&quot; face=&quot;Times New Roman&quot;&gt;Receiving data&lt;/font&gt;" style="text;html=1;align=center;verticalAlign=middle;whiteSpace=wrap;rounded=0;fontFamily=Helvetica;fontSize=12;fontColor=default;flipV=1;flipH=1;rotation=-90;" vertex="1" parent="1">
          <mxGeometry x="-150" y="410" width="345" height="30" as="geometry" />
        </mxCell>
        <mxCell id="CrymO2VgQ4_H6ppFqPqp-38" value="" style="endArrow=classic;html=1;rounded=0;fontFamily=Helvetica;fontSize=12;fontColor=default;" edge="1" parent="1">
          <mxGeometry width="50" height="50" relative="1" as="geometry">
            <mxPoint x="780" y="200" as="sourcePoint" />
            <mxPoint x="780" y="680" as="targetPoint" />
            <Array as="points">
              <mxPoint x="780" y="390" />
            </Array>
          </mxGeometry>
        </mxCell>
        <mxCell id="CrymO2VgQ4_H6ppFqPqp-39" value="&lt;font style=&quot;font-size: 20px;&quot; face=&quot;Times New Roman&quot;&gt;Sending data&lt;/font&gt;" style="text;html=1;align=center;verticalAlign=middle;whiteSpace=wrap;rounded=0;fontFamily=Helvetica;fontSize=12;fontColor=default;flipV=1;flipH=1;rotation=-90;" vertex="1" parent="1">
          <mxGeometry x="640" y="370" width="345" height="30" as="geometry" />
        </mxCell>
      </root>
    </mxGraphModel>
  </diagram>
</mxfile>
